<svg width="60" height="60" fill="none" stroke="#1c0a00" stroke-linecap="round" stroke-linejoin="round" stroke-width="2" viewBox="0 0 24 24" xmlns="http://www.w3.org/2000/svg">
  <path d="M3 14c.83.643 2.077 1.018 3.5 1 1.423.018 2.67-.357 3.5-1 .83-.641 2.077-1.016 3.5-1 1.423-.016 2.67.359 3.5 1"></path>
  <path d="M8 3a2.4 2.4 0 0 0-1 2 2.4 2.4 0 0 0 1 2"></path>
  <path d="M12 3a2.4 2.4 0 0 0-1 2 2.401 2.401 0 0 0 1 2"></path>
  <path d="M3 10h14v5a6 6 0 0 1-6 6H9a6 6 0 0 1-6-6v-5Z"></path>
  <path d="M16.746 16.726a3 3 0 1 0 .252-5.555"></path>
</svg>