<?xml version="1.0" encoding="UTF-8"?>
<svg id="_Слой_2" data-name="Слой 2" xmlns="http://www.w3.org/2000/svg" viewBox="0 0 4000 4000">
  <g id="_Слой_1-2" data-name="Слой 1">
    <path d="m255.79,3295.03c21.41-14.41,50.24-21.62,86.5-21.62,28,0,52.52,4.13,73.52,12.36,21.01,8.24,37.48,21.01,49.43,38.31,11.93,17.3,18.32,38.73,19.15,64.26h200.18c-1.66-56.84-16.49-106.89-44.49-150.14-28.02-43.25-66.94-77.02-116.77-101.33-49.85-24.29-107.31-36.45-172.38-36.45s-121.72,10.93-169.91,32.75c-48.19,21.84-85.07,52.73-110.6,92.68-25.54,39.97-38.31,87.12-38.31,141.49,0,51.09,9.46,92.89,28.42,125.43,18.94,32.55,50.24,58.91,93.91,79.08,43.65,20.19,103.37,36.88,179.18,50.05,42.01,6.6,74.34,14.42,97,23.48,22.65,9.07,38.93,20.2,48.81,33.36,9.89,13.19,14.83,30.49,14.83,51.9,0,32.13-11.55,56.22-34.6,72.29-23.07,16.06-53.97,24.1-92.68,24.1-34.6,0-64.47-5.56-89.59-16.68-25.14-11.12-44.49-27.18-58.08-48.19-13.59-21.01-20.81-45.1-21.62-72.29H0c2.47,61.79,18.54,116.16,48.19,163.11,29.66,46.96,71.25,83.22,124.81,108.74,53.54,25.53,116.97,38.31,190.3,38.31,64.26,0,120.67-11.12,169.29-33.36,48.6-22.24,86.07-53.94,112.45-95.15,26.36-41.18,39.54-90.21,39.54-147.05,0-51.07-10.1-93.7-30.27-127.9-20.2-34.18-51.9-61.98-95.15-83.41-43.25-21.41-99.9-37.88-169.91-49.43-43.68-6.58-77.04-14.21-100.09-22.86-23.07-8.65-39.75-19.34-50.05-32.13-10.31-12.76-15.45-29.04-15.45-48.81,0-28.83,10.7-50.45,32.13-64.87Z"/>
    <polygon points="1285.76 3623.46 1684.15 3623.46 1684.15 3458.96 1285.76 3458.96 1285.76 3275.19 1713.71 3275.19 1713.71 3100.41 1089.13 3100.41 1089.13 4000 1720.13 4000 1720.13 3825.22 1285.76 3825.22 1285.76 3623.46"/>
    <path d="m2744.08,3633.09c48.84-23.55,85.88-56.75,111.16-99.6,25.26-42.83,37.91-92.09,37.91-147.79s-12.65-104.94-37.91-147.79c-25.28-42.83-62.13-76.46-110.52-100.88-48.41-24.42-107.31-36.63-176.71-36.63h-406.1v899.59h196.63v-331.56h131.24l211.89,331.56h219.76l-228.32-347.62c18.03-5.18,35.04-11.59,50.97-19.28Zm-385.54-357.91h205.62c41.97,0,73.9,9.64,95.74,28.92,21.85,19.28,32.77,46.49,32.77,81.6,0,24-4.94,44.14-14.78,60.4-9.86,16.29-24.22,28.92-43.05,37.91-18.85,9-42.41,13.49-70.68,13.49h-205.62v-222.33Z"/>
    <path d="m3962.09,3240.49c-25.28-43.69-62.77-77.95-112.45-102.81-49.7-24.84-109.24-37.27-178.63-37.27h-382.97v899.59h196.63v-316.14h186.34c69.4,0,128.94-11.99,178.63-35.98,49.68-23.98,87.17-58.25,112.45-102.81,25.26-44.54,37.91-95.52,37.91-152.93s-12.65-107.95-37.91-151.65Zm-176.71,215.26c-10.28,17.57-25.28,31.06-44.98,40.48-19.72,9.44-43.69,14.13-71.97,14.13h-183.77v-235.18h183.77c41.97,0,74.54,10.08,97.67,30.2,23.13,20.14,34.7,49.06,34.7,86.75,0,24.86-5.14,46.07-15.42,63.61Z"/>
    <g>
      <path d="m3214.78,578.91C2993.57,275.12,2679.76,78.63,2340.3,0c208.05,90.35,395.47,235.69,538.64,432.31,427.99,587.8,298.44,1411.25-289.35,1839.25-481.47,350.57-1121.05,327.06-1571.89-15.95l-47.22,300.17c515.39,486.96,1320.29,553.59,1914.25,121.11,670.48-488.2,818.25-1427.49,330.06-2097.97Z"/>
      <path d="m1423.33,2342.86c119.6,41.09,244.39,63.06,370.89,65.32,127.84,2.28,254.29-15.66,375.86-53.32,73.2-22.68,143.87-52.32,211.36-88.56l-348.15-527.67-22.81,17.41c-96.41,73.58-235.58,44.92-295.02-60.75l-528.65-770.68c-17.89-26.08-12.2-61.62,12.96-80.82l1.16-.88c26.08-19.9,63.35-14.9,83.24,11.17l537,703.88,94.18-71.88-537-703.88c-19.89-26.07-14.87-63.34,11.2-83.25,26.08-19.9,63.35-14.9,83.24,11.17l537,703.87,94.18-71.88-537-703.88c-19.89-26.07-14.87-63.34,11.2-83.25l1.16-.88c25.16-19.2,60.93-15.31,81.36,8.84l603.63,713.47c86.21,85.23,77.11,227.06-19.3,300.64l-22.3,17.02,419.6,483.61c430.37-408.66,501.81-1084.95,143.26-1577.38-64.05-87.96-139.26-166.56-223.52-233.61-81.67-64.97-171.75-119.06-267.75-160.75h0c-354.39-153.91-762.34-124.87-1089.85,80.12-29.98,18.77-59.52,38.72-88.56,59.86-671.14,488.67-819.05,1428.89-330.38,2100.02,26.82,36.83,54.99,72.08,84.41,105.74l63.74-405.16,153.98,117.15c101.56,77.27,214.5,137.55,335.69,179.19Z"/>
    </g>
  </g>
</svg>