<svg width="170" height="170" viewBox="0 0 170 170" fill="none" xmlns="http://www.w3.org/2000/svg">
<path d="M153.719 33.196C141.205 15.7756 123.454 4.50884 104.251 0C116.02 5.1812 126.622 13.5146 134.721 24.7895C158.932 58.4947 151.604 105.713 118.352 130.255C91.116 150.357 54.9361 149.009 29.4321 129.34L26.7606 146.552C55.9153 174.475 101.447 178.296 135.047 153.497C172.976 125.503 181.335 71.6425 153.719 33.196Z" fill="#C8B396"/>
<path d="M52.3791 134.343C59.1447 136.699 66.204 137.959 73.3601 138.089C80.5915 138.22 87.7451 137.191 94.6217 135.031C98.7625 133.731 102.76 132.031 106.578 129.953L86.8837 99.6963L85.5934 100.695C80.1393 104.914 72.2666 103.271 68.9048 97.2109L38.9996 53.0189C37.9873 51.5233 38.3098 49.4854 39.7327 48.3847L39.7982 48.3341C41.2734 47.193 43.3814 47.4798 44.5068 48.9746L74.8838 89.3361L80.2112 85.2144L49.8338 44.8529C48.7088 43.3578 48.9922 41.2209 50.4674 40.0793C51.9426 38.9382 54.0506 39.2251 55.176 40.7198L85.5534 81.0809L90.8808 76.9592L60.5034 36.5977C59.3784 35.1025 59.6619 32.9656 61.1371 31.8241L61.2025 31.7735C62.6254 30.6728 64.6493 30.8955 65.8053 32.2801L99.9516 73.1916C104.829 78.0791 104.313 86.2115 98.8598 90.4309L97.5984 91.4067L121.335 119.138C145.68 95.7047 149.721 56.9251 129.439 28.6884C125.816 23.6445 121.561 19.1374 116.794 15.2928C112.174 11.5673 107.078 8.46602 101.648 6.07539C81.6005 -2.75018 58.5238 -1.0846 39.9967 10.6697C38.3005 11.7458 36.6298 12.8899 34.9872 14.102C-2.97819 42.1231 -11.3456 96.0366 16.2982 134.52C17.815 136.632 19.4092 138.654 21.0731 140.584L24.6788 117.351L33.3892 124.068C39.1339 128.499 45.523 131.956 52.3787 134.343L52.3791 134.343Z" fill="#C8B396"/>
</svg>
