<svg width="43" height="67" viewBox="0 0 43 67" fill="none" xmlns="http://www.w3.org/2000/svg">
<circle cx="22" cy="11" r="11" fill="#f4ae3d"/>
<path d="M40 45.5C41.6569 45.5 43.0215 44.1505 42.791 42.5097C42.5389 40.7146 42.0602 38.9545 41.3634 37.2723C40.2829 34.6638 38.6993 32.2937 36.7028 30.2972C34.7063 28.3007 32.3362 26.7171 29.7277 25.6366C27.1192 24.5561 24.3234 24 21.5 24C18.6766 24 15.8808 24.5561 13.2723 25.6366C10.6638 26.7171 8.29366 28.3007 6.2972 30.2972C4.30074 32.2937 2.71707 34.6638 1.63659 37.2723C0.939805 38.9545 0.461092 40.7146 0.208965 42.5097C-0.0214774 44.1505 1.34315 45.5 3 45.5L21.5 45.5H40Z" fill="#f4ae3d"/>
</svg>
