<svg width="306" height="42" viewBox="0 0 306 42" fill="none" xmlns="http://www.w3.org/2000/svg">
<path d="M13.195 32V25.385H2.1C1.86667 25.385 1.65667 25.3267 1.47 25.21C1.30667 25.07 1.20167 24.895 1.155 24.685L0.84 23.11L13.055 6.905H15.96V22.935H19.74V24.72C19.74 24.9067 19.6817 25.07 19.565 25.21C19.4717 25.3267 19.3083 25.385 19.075 25.385H15.96V32H13.195ZM4.235 22.935H13.195V12.61C13.195 12.3067 13.2067 11.98 13.23 11.63C13.2533 11.28 13.2883 10.9183 13.335 10.545L4.235 22.935ZM23.4371 36.76L22.9121 36.235C22.8421 36.165 22.7838 36.0833 22.7371 35.99C22.7138 35.92 22.7021 35.8383 22.7021 35.745C22.7021 35.605 22.7838 35.4533 22.9471 35.29C23.2038 34.9633 23.5421 34.4967 23.9621 33.89C24.4055 33.3067 24.6855 32.6767 24.8021 32C24.7788 32 24.7438 32 24.6971 32C24.6505 32 24.6038 32 24.5571 32C23.9738 32 23.4838 31.8017 23.0871 31.405C22.7138 30.985 22.5271 30.46 22.5271 29.83C22.5271 29.2933 22.7255 28.8383 23.1221 28.465C23.5188 28.0683 24.0088 27.87 24.5921 27.87C25.2921 27.87 25.8288 28.1033 26.2021 28.57C26.5755 29.0367 26.7621 29.6317 26.7621 30.355C26.7621 31.4283 26.4588 32.56 25.8521 33.75C25.2455 34.94 24.4405 35.9433 23.4371 36.76ZM38.17 32.28C36.49 32.28 35.0316 31.93 33.795 31.23C32.5583 30.5067 31.59 29.5033 30.89 28.22C30.2133 26.9133 29.875 25.4083 29.875 23.705C29.875 22.6083 30.12 21.4417 30.61 20.205C31.1 18.9683 31.8816 17.6383 32.955 16.215L39.29 7.675C39.4533 7.465 39.675 7.29 39.955 7.15C40.2583 6.98667 40.5966 6.905 40.97 6.905H43.735L36.98 15.48C36.6766 15.8767 36.3616 16.285 36.035 16.705C35.7083 17.125 35.3816 17.5333 35.055 17.93C35.6383 17.51 36.2916 17.195 37.015 16.985C37.7383 16.7517 38.52 16.635 39.36 16.635C40.76 16.635 42.02 16.9383 43.14 17.545C44.26 18.1517 45.1466 19.015 45.8 20.135C46.4533 21.2317 46.78 22.55 46.78 24.09C46.78 25.6533 46.4066 27.0533 45.66 28.29C44.9366 29.5267 43.9216 30.5067 42.615 31.23C41.3316 31.93 39.85 32.28 38.17 32.28ZM38.135 29.69C39.2316 29.69 40.1883 29.4683 41.005 29.025C41.845 28.5583 42.4983 27.9283 42.965 27.135C43.4316 26.3183 43.665 25.385 43.665 24.335C43.665 22.7017 43.175 21.4067 42.195 20.45C41.215 19.4933 39.9316 19.015 38.345 19.015C37.2716 19.015 36.3266 19.2483 35.51 19.715C34.6933 20.1817 34.0516 20.8117 33.585 21.605C33.1183 22.3983 32.885 23.285 32.885 24.265C32.885 25.315 33.095 26.2483 33.515 27.065C33.935 27.8817 34.53 28.5233 35.3 28.99C36.0933 29.4567 37.0383 29.69 38.135 29.69Z" fill="black"/>
<path d="M99.4951 33.0833L101.865 22.8385L93.917 15.9479L104.417 15.0365L108.5 5.375L112.584 15.0365L123.084 15.9479L115.136 22.8385L117.506 33.0833L108.5 27.651L99.4951 33.0833Z" fill="#FACC15"/>
<path d="M144.495 33.0833L146.865 22.8385L138.917 15.9479L149.417 15.0365L153.5 5.375L157.584 15.0365L168.084 15.9479L160.136 22.8385L162.506 33.0833L153.5 27.651L144.495 33.0833Z" fill="#FACC15"/>
<path d="M189.495 33.0833L191.865 22.8385L183.917 15.9479L194.417 15.0365L198.5 5.375L202.584 15.0365L213.084 15.9479L205.136 22.8385L207.506 33.0833L198.5 27.651L189.495 33.0833Z" fill="#FACC15"/>
<path d="M234.495 33.0833L236.865 22.8385L228.917 15.9479L239.417 15.0365L243.5 5.375L247.584 15.0365L258.084 15.9479L250.136 22.8385L252.506 33.0833L243.5 27.651L234.495 33.0833Z" fill="#FACC15"/>
<path d="M283.907 26.9948L288.5 24.224L293.094 27.0312L291.891 21.7812L295.938 18.2812L290.615 17.8073L288.5 12.849L286.386 17.7708L281.063 18.2448L285.11 21.7812L283.907 26.9948ZM279.495 33.0833L281.865 22.8385L273.917 15.9479L284.417 15.0365L288.5 5.375L292.584 15.0365L303.084 15.9479L295.136 22.8385L297.506 33.0833L288.5 27.651L279.495 33.0833Z" fill="#FACC15"/>
</svg>
